<svg width="11" height="13" viewBox="0 0 11 13" fill="none" xmlns="http://www.w3.org/2000/svg">
<path d="M10.4216 4.34304C10.3643 4.37646 9.00031 5.08186 9.00031 6.64589C9.06459 8.42957 10.7216 9.05509 10.75 9.05509C10.7216 9.08852 10.4998 9.90721 9.84301 10.7654C9.32174 11.5047 8.74316 12.25 7.86459 12.25C7.02887 12.25 6.72887 11.7573 5.76458 11.7573C4.72902 11.7573 4.43601 12.25 3.64315 12.25C2.76458 12.25 2.14315 11.4647 1.59345 10.7324C0.879322 9.77395 0.272333 8.26982 0.250905 6.8256C0.236464 6.0603 0.393917 5.30802 0.793608 4.66904C1.35774 3.77699 2.36489 3.17143 3.46473 3.15146C4.30744 3.12498 5.05744 3.6906 5.57173 3.6906C6.06458 3.6906 6.98601 3.15146 8.02856 3.15146C8.47857 3.1519 9.67857 3.27822 10.4216 4.34304ZM5.50045 2.99866C5.35045 2.29978 5.76458 1.60089 6.1503 1.15508C6.64316 0.615938 7.42158 0.25 8.09285 0.25C8.13571 0.948886 7.86412 1.63432 7.37872 2.13352C6.94316 2.67266 6.19316 3.07853 5.50045 2.99866Z" fill="black"/>
</svg>
